<?xml version="1.0" encoding="utf-8"?>
<!-- Generator: Adobe Illustrator 25.2.3, SVG Export Plug-In . SVG Version: 6.00 Build 0)  -->
<svg version="1.1" id="Capa_1" xmlns="http://www.w3.org/2000/svg" xmlns:xlink="http://www.w3.org/1999/xlink" x="0px" y="0px"
	 viewBox="0 0 1184.5 671.3" style="enable-background:new 0 0 1184.5 671.3;" xml:space="preserve">
<style type="text/css">
	.st0{fill:none;}
	.st1{fill:#423725;}
	.st2{font-family:'ArialMT';}
	.st3{font-size:18.8412px;}
	.st4{fill:none;stroke:#7C7C7C;stroke-width:0.75;stroke-miterlimit:10;}
	.st5{fill:none;stroke:#7C7C7C;stroke-width:0.75;stroke-miterlimit:10;stroke-dasharray:3.9998,3.9998;}
	.st6{fill:#7C7C7C;}
	.st7{font-family:'Helvetica';}
	.st8{font-size:15.701px;}
	.st9{fill:none;stroke:#B36035;stroke-width:14;stroke-miterlimit:10;}
	.st10{fill:none;stroke:#DAAE35;stroke-width:14;stroke-miterlimit:10;}
	.st11{fill:none;stroke:#423725;stroke-width:14;stroke-miterlimit:10;}
</style>
<rect x="82.3" y="118.5" class="st0" width="182.8" height="17.1"/>
<text transform="matrix(1 0 0 1 124.9002 131.8335)" class="st1 st2 st3">República Checa</text>
<rect x="196.3" y="163.1" class="st0" width="68.8" height="17.1"/>
<text transform="matrix(1 0 0 1 199.2068 176.3574)" class="st1 st2 st3">Namibia</text>
<rect x="207.5" y="206.4" class="st0" width="57.5" height="19.3"/>
<text transform="matrix(1 0 0 1 209.7561 219.7681)" class="st1 st2 st3">Austria</text>
<rect x="188.6" y="253.8" class="st0" width="76.3" height="13.7"/>
<text transform="matrix(1 0 0 1 190.8582 267.1172)" class="st1 st2 st3">Alemania</text>
<rect x="200.4" y="296" class="st0" width="64.7" height="18.1"/>
<text transform="matrix(1 0 0 1 205.9119 309.3623)" class="st1 st2 st3">Polonia</text>
<rect x="205.4" y="340.6" class="st0" width="59.5" height="18.1"/>
<text transform="matrix(1 0 0 1 210.6614 353.9131)" class="st1 st2 st3">Irlanda</text>
<rect x="188.6" y="385.2" class="st0" width="76.5" height="17.7"/>
<text transform="matrix(1 0 0 1 195.7566 398.5811)" class="st1 st2 st3">Rumania</text>
<rect x="180.3" y="429.8" class="st0" width="84.6" height="17.6"/>
<text transform="matrix(1 0 0 1 183.283 443.166)" class="st1 st2 st3">Seychelles</text>
<rect x="205.4" y="473.9" class="st0" width="59.5" height="18.2"/>
<text transform="matrix(1 0 0 1 207.7586 487.3653)" class="st1 st2 st3">Estonia</text>
<rect x="197.7" y="519.2" class="st0" width="67.2" height="17"/>
<text transform="matrix(1 0 0 1 202.0681 532.4738)" class="st1 st2 st3">Lituania</text>
<g>
	<g>
		<line class="st4" x1="278.3" y1="595.6" x2="278.3" y2="592.4"/>
		<line class="st5" x1="278.3" y1="586.2" x2="278.3" y2="109.8"/>
		<line class="st4" x1="278.3" y1="106.7" x2="278.3" y2="103.5"/>
	</g>
</g>
<g>
	<g>
		<line class="st4" x1="388.2" y1="595.6" x2="388.2" y2="592.4"/>
		<line class="st5" x1="388.2" y1="586.2" x2="388.2" y2="109.8"/>
		<line class="st4" x1="388.2" y1="106.7" x2="388.2" y2="103.5"/>
	</g>
</g>
<g>
	<g>
		<line class="st4" x1="498.1" y1="595.6" x2="498.1" y2="592.4"/>
		<line class="st5" x1="498.1" y1="586.2" x2="498.1" y2="109.8"/>
		<line class="st4" x1="498.1" y1="106.7" x2="498.1" y2="103.5"/>
	</g>
</g>
<g>
	<g>
		<line class="st4" x1="608" y1="595.6" x2="608" y2="592.4"/>
		<line class="st5" x1="608" y1="586.2" x2="608" y2="109.8"/>
		<line class="st4" x1="608" y1="106.7" x2="608" y2="103.5"/>
	</g>
</g>
<g>
	<g>
		<line class="st4" x1="717.9" y1="595.6" x2="717.9" y2="592.4"/>
		<line class="st5" x1="717.9" y1="586.2" x2="717.9" y2="109.8"/>
		<line class="st4" x1="717.9" y1="106.7" x2="717.9" y2="103.5"/>
	</g>
</g>
<g>
	<g>
		<line class="st4" x1="827.8" y1="595.6" x2="827.8" y2="592.4"/>
		<line class="st5" x1="827.8" y1="586.2" x2="827.8" y2="109.8"/>
		<line class="st4" x1="827.8" y1="106.7" x2="827.8" y2="103.5"/>
	</g>
</g>
<g>
	<g>
		<line class="st4" x1="937.7" y1="595.6" x2="937.7" y2="592.4"/>
		<line class="st5" x1="937.7" y1="586.2" x2="937.7" y2="109.8"/>
		<line class="st4" x1="937.7" y1="106.7" x2="937.7" y2="103.5"/>
	</g>
</g>
<g>
	<g>
		<line class="st4" x1="1047.6" y1="595.6" x2="1047.6" y2="592.4"/>
		<line class="st5" x1="1047.6" y1="586.2" x2="1047.6" y2="109.8"/>
		<line class="st4" x1="1047.6" y1="106.7" x2="1047.6" y2="103.5"/>
	</g>
</g>
<g>
	<text transform="matrix(1 0 0 1 273.8787 610.8038)" class="st6 st7 st8">0</text>
</g>
<g>
	<text transform="matrix(1 0 0 1 379.4197 610.8038)" class="st6 st7 st8">20</text>
</g>
<g>
	<text transform="matrix(1 0 0 1 489.3269 610.8038)" class="st6 st7 st8">40</text>
</g>
<g>
	<text transform="matrix(1 0 0 1 599.2341 610.8038)" class="st6 st7 st8">60</text>
</g>
<g>
	<text transform="matrix(1 0 0 1 709.1414 610.8038)" class="st6 st7 st8">80</text>
</g>
<g>
	<text transform="matrix(1 0 0 1 814.6824 610.8038)" class="st6 st7 st8">100</text>
</g>
<g>
	<text transform="matrix(1 0 0 1 924.5896 610.8038)" class="st6 st7 st8">120</text>
</g>
<g>
	<text transform="matrix(1 0 0 1 1034.4968 610.8038)" class="st6 st7 st8">140</text>
</g>
<g>
	<text transform="matrix(1 0 0 1 273.8787 95.6011)" class="st6 st7 st8">0</text>
	<text transform="matrix(1 0 0 1 379.4197 95.6011)" class="st6 st7 st8">20</text>
	<text transform="matrix(1 0 0 1 489.3269 95.6011)" class="st6 st7 st8">40</text>
	<text transform="matrix(1 0 0 1 599.2341 95.6011)" class="st6 st7 st8">60</text>
	<text transform="matrix(1 0 0 1 709.1414 95.6011)" class="st6 st7 st8">80</text>
	<text transform="matrix(1 0 0 1 814.6824 95.6011)" class="st6 st7 st8">100</text>
	<text transform="matrix(1 0 0 1 924.5896 95.6011)" class="st6 st7 st8">120</text>
	<text transform="matrix(1 0 0 1 1034.4968 95.6011)" class="st6 st7 st8">140</text>
</g>
<text transform="matrix(1 0 0 1 158.1443 95.6011)" class="st6 st2 st3">L per capita</text>
<line class="st9" x1="277.7" y1="260.6" x2="850.3" y2="260.6"/>
<line class="st9" x1="277.7" y1="216" x2="860.2" y2="216"/>
<line class="st9" x1="277.7" y1="483" x2="769.4" y2="483"/>
<line class="st9" x1="277.7" y1="349.6" x2="817.3" y2="349.6"/>
<line class="st9" x1="277.7" y1="527.6" x2="765" y2="527.6"/>
<text transform="matrix(1 0 0 1 222.1577 577.2902)" class="st1 st2 st3">Chile</text>
<line class="st10" x1="277.7" y1="572.2" x2="564" y2="572.2"/>
<line class="st9" x1="277.7" y1="171.5" x2="871.2" y2="171.5"/>
<line class="st9" x1="277.7" y1="305" x2="831.6" y2="305"/>
<line class="st11" x1="277.7" y1="127.1" x2="1065.1" y2="127.1"/>
<line class="st9" x1="277.7" y1="394" x2="794.7" y2="394"/>
<line class="st9" x1="277.7" y1="438.6" x2="772.2" y2="438.6"/>
<text transform="matrix(1 0 0 1 273.8796 643.5518)" class="st6 st2 st8">Fuente: Kirin Holdings Company</text>
</svg>
