<?xml version="1.0" encoding="utf-8"?>
<!-- Generator: Adobe Illustrator 25.2.3, SVG Export Plug-In . SVG Version: 6.00 Build 0)  -->
<svg version="1.1" id="Capa_1" xmlns="http://www.w3.org/2000/svg" xmlns:xlink="http://www.w3.org/1999/xlink" x="0px" y="0px"
	 viewBox="0 0 805 234.5" style="enable-background:new 0 0 805 234.5;" xml:space="preserve">
<style type="text/css">
	.st0{display:none;}
	.st1{display:inline;}
	.st2{fill:#665235;}
	.st3{fill:#423725;}
	.st4{fill:#B36035;}
	.st5{fill:#DAAE55;}
	.st6{font-family:'ArialMT';}
	.st7{font-size:12px;}
	.st8{fill:none;}
	.st9{fill:#B3B3B3;}
	.st10{font-size:17px;}
</style>
<g id="Capa_1_1_" class="st0">
	<g id="ySB0He_1_" class="st1">
	</g>
</g>
<g>
	<path class="st2" d="M104.2,128.6c-1.5-5.2-1.7-10.7-1.5-16.1c0.2-6.5,0.8-12.9,0.7-19.3c-0.1-6.8-0.5-13.7-0.5-20.5
		c0-0.3,0.2-0.5,0.5-0.5l-0.3-2.2l3.5-8.1l-0.8-10.1H34L33.2,51l-1.9,12l1.5,42.7l5.8,3.9l-1.2,42.3l5,4.3h57.1l3.1-4.7l1.8-21.7
		C104.4,129.3,104.3,129,104.2,128.6z"/>
	<g id="_x30_zEMZk.tif">
		<g>
			<path class="st3" d="M36.2,109.6c-4.6-1.3-5.8-4.5-5.8-9c0.2-12.9,0.1-25.8,0.1-38.7c0-11.2,8.3-20,19.6-20.7
				c0.8-0.1,2-0.6,2.4-1.3c7.4-11.7,23.2-11.3,29.8,0.8c0.1,0.3,0.3,0.5,0.6,0.9c5.2-1.9,10.3-1.8,15.2,0.6
				c9.7,4.8,13.2,16.8,7.6,26.1c-0.7,1.2-1,2.6-1.7,4.4c5.7,0,10.7,0,15.7,0c8,0,12.6,4.6,12.6,12.6c0,11.1,0,22.3,0,33.4
				c0,7.5-4.5,12.1-11.9,12.2c-5.2,0.1-10.3,0-15.8,0c0,2.2,0,4.1,0,6.1c0,4.4,0,8.8,0,13.1c0,4.2-2.5,6.9-6.7,7.2
				c-0.8,0.1-1.6,0-2.4,0c-16.6,0-33.3,0-49.9,0c-7.2,0-9.3-2.2-9.3-9.5c0-11.9,0-23.9,0-35.8C36.2,111.4,36.2,110.6,36.2,109.6z
				 M44.2,90.3c0,3.9,0,8,0,12.1c0,2.8-1.1,5-3.7,6.2c-1.4,0.6-1.5,1.5-1.5,2.8c0,12.6,0,25.2,0,37.7c0,4.3,1.3,5.7,5.7,5.7
				c17,0,34.1,0,51.1,0c4.5,0,5.8-1.3,5.8-5.8c0-24.4,0-48.9,0-73.3c0-0.7-0.1-1.5-0.1-2c-3.2,1.4-6.2,2.6-9.4,4c0,0.6,0,1.4,0,2.2
				c0,2,0.1,4,0,6c-0.1,3.7-2.7,6.4-6.2,6.6c-3.7,0.3-6.7-2-7.3-5.7c-0.3-2.1-0.3-4.2-0.4-6.4c-5.1,0.9-9.5-0.3-12.9-3.4
				c-2.7,1.4-5,3-7.6,4c-1.7,0.7-2.5,1.3-2.5,3.3c0,3.5-2.4,6.4-5.6,6.7C47.9,91,46.2,90.5,44.2,90.3z M33.2,81.3
				c0,6.8,0,13.7,0,20.5c0,3.3,1.5,5,4.2,4.9c2.5-0.1,4-1.8,4-4.9c0-5.4,0-10.8,0.1-16.2c0-0.9,0.5-2.5,1.1-2.7
				c1.5-0.5,1.5,1,1.8,2.1c0.5,2.1,2.4,3.3,4.5,3c2.2-0.3,3.4-1.7,3.5-3.9c0.1-0.9,0.1-1.8,0-2.6c-0.1-1.5,0.5-2.3,2.1-2.6
				c3.4-0.7,6.4-2.3,8.9-4.8c1.2-1.3,2.2-1.1,3.4,0.1c3.2,3.3,7.1,4.3,11.6,3c2.5-0.7,2.9-0.4,2.9,2.3c0,1.8,0,3.7,0,5.5
				c0.1,2.8,1.6,4.6,4.1,4.6c2.4,0,4.1-1.7,4.2-4.5c0.1-2.5,0.1-5.1,0-7.6c-0.1-2.1,0.6-2.9,2.7-3.3c6.5-1,10.9-4.8,12.7-11.1
				c1.8-6.2,0.2-11.7-4.7-16c-4.8-4.3-10.5-5.2-16.5-2.7c-1.9,0.8-2.8,0.4-3.6-1.5c-2.3-5.5-6.6-8.5-12.6-8.7s-10.4,2.6-13.1,7.9
				c-0.7,1.3-1.4,1.9-2.9,1.9c-10.8,0-18.3,7.5-18.4,18.3C33.2,68.7,33.2,75,33.2,81.3z M104.7,84.2c0,12,0,23.8,0,35.6
				c4.5,0,8.8,0,13.1,0c2,0,3.1-1.1,3.1-3.1c0-9.8,0-19.6,0-29.4c0-2-1-3-2.9-3.1C113.6,84.1,109.2,84.2,104.7,84.2z M104.6,128.2
				c6.1,0,11.9,0.2,17.8-0.1c3.8-0.2,6.9-3.8,7-7.9c0.1-12.2,0.1-24.3,0-36.5c0-4.1-3.2-7.6-7.3-7.9c-5.8-0.3-11.6-0.1-17.4-0.1
				c0,1.9,0,3.7,0,5.6c4.4,0,8.7,0,13,0c3.5,0,5.9,2.1,6,5.5c0.1,10.1,0.1,20.2,0,30.3c0,3-2,5.1-5.1,5.3c-3.8,0.2-7.6,0.1-11.4,0.2
				c-0.8,0-1.7,0.1-2.5,0.1C104.6,124.7,104.6,126.3,104.6,128.2z"/>
		</g>
	</g>
</g>
<path class="st4" d="M232.2,126.5c-0.8-5.7-1-11.6-1.2-17.4c-0.5-11.7-0.4-23.5,1.5-35.1h-0.6l-0.4-3.1l1.9-4.4h-73.5l1.4,39.6
	l5.8,3.8l-1.2,41.8l5,4.2H228l3.1-4.6l1.8-20.9C232.6,129.2,232.4,127.8,232.2,126.5z"/>
<g id="_x30_zEMZk.tif_1_">
	<g>
		<path class="st3" d="M164.6,109.6c-4.6-1.3-5.8-4.5-5.8-9c0.2-12.9,0.1-25.8,0.1-38.7c0-11.2,8.3-20,19.6-20.7
			c0.8-0.1,2-0.6,2.4-1.3c7.4-11.7,23.2-11.3,29.8,0.8c0.1,0.3,0.3,0.5,0.6,0.9c5.2-1.9,10.3-1.8,15.2,0.6
			c9.7,4.8,13.2,16.8,7.6,26.1c-0.7,1.2-1,2.6-1.7,4.4c5.7,0,10.7,0,15.7,0c8,0,12.6,4.6,12.6,12.6c0,11.1,0,22.3,0,33.4
			c0,7.5-4.5,12.1-11.9,12.2c-5.2,0.1-10.3,0-15.8,0c0,2.2,0,4.1,0,6.1c0,4.4,0,8.8,0,13.1c0,4.2-2.5,6.9-6.7,7.2
			c-0.8,0.1-1.6,0-2.4,0c-16.6,0-33.3,0-49.9,0c-7.2,0-9.3-2.2-9.3-9.5c0-11.9,0-23.9,0-35.8C164.6,111.4,164.6,110.6,164.6,109.6z
			 M172.7,90.3c0,3.9,0,8,0,12.1c0,2.8-1.1,5-3.7,6.2c-1.4,0.6-1.5,1.5-1.5,2.8c0,12.6,0,25.2,0,37.7c0,4.3,1.3,5.7,5.7,5.7
			c17,0,34.1,0,51.1,0c4.5,0,5.8-1.3,5.8-5.8c0-24.4,0-48.9,0-73.3c0-0.7-0.1-1.5-0.1-2c-3.2,1.4-6.2,2.6-9.4,4c0,0.6,0,1.4,0,2.2
			c0,2,0.1,4,0,6c-0.1,3.7-2.7,6.4-6.2,6.6c-3.7,0.3-6.7-2-7.3-5.7c-0.3-2.1-0.3-4.2-0.4-6.4c-5.1,0.9-9.5-0.3-12.9-3.4
			c-2.7,1.4-5,3-7.6,4c-1.7,0.7-2.5,1.3-2.5,3.3c0,3.5-2.4,6.4-5.6,6.7C176.4,91,174.6,90.5,172.7,90.3z M161.7,81.3
			c0,6.8,0,13.7,0,20.5c0,3.3,1.5,5,4.2,4.9c2.5-0.1,4-1.8,4-4.9c0-5.4,0-10.8,0.1-16.2c0-0.9,0.5-2.5,1.1-2.7
			c1.5-0.5,1.5,1,1.8,2.1c0.5,2.1,2.4,3.3,4.5,3c2.2-0.3,3.4-1.7,3.5-3.9c0.1-0.9,0.1-1.8,0-2.6c-0.1-1.5,0.5-2.3,2.1-2.6
			c3.4-0.7,6.4-2.3,8.9-4.8c1.2-1.3,2.2-1.1,3.4,0.1c3.2,3.3,7.1,4.3,11.6,3c2.5-0.7,2.9-0.4,2.9,2.3c0,1.8,0,3.7,0,5.5
			c0.1,2.8,1.6,4.6,4.1,4.6c2.4,0,4.1-1.7,4.2-4.5c0.1-2.5,0.1-5.1,0-7.6c-0.1-2.1,0.6-2.9,2.7-3.3c6.5-1,10.9-4.8,12.7-11.1
			c1.8-6.2,0.2-11.7-4.7-16c-4.8-4.3-10.5-5.2-16.5-2.7c-1.9,0.8-2.8,0.4-3.6-1.5c-2.3-5.5-6.6-8.5-12.6-8.7s-10.4,2.6-13.1,7.9
			c-0.7,1.3-1.4,1.9-2.9,1.9c-10.8,0-18.3,7.5-18.4,18.3C161.7,68.7,161.7,75,161.7,81.3z M233.2,84.2c0,12,0,23.8,0,35.6
			c4.5,0,8.8,0,13.1,0c2,0,3.1-1.1,3.1-3.1c0-9.8,0-19.6,0-29.4c0-2-1-3-2.9-3.1C242,84.1,237.7,84.2,233.2,84.2z M233.1,128.2
			c6.1,0,11.9,0.2,17.8-0.1c3.8-0.2,6.9-3.8,7-7.9c0.1-12.2,0.1-24.3,0-36.5c0-4.1-3.2-7.6-7.3-7.9c-5.8-0.3-11.6-0.1-17.4-0.1
			c0,1.9,0,3.7,0,5.6c4.4,0,8.7,0,13,0c3.5,0,5.9,2.1,6,5.5c0.1,10.1,0.1,20.2,0,30.3c0,3-2,5.1-5.1,5.3c-3.8,0.2-7.6,0.1-11.4,0.2
			c-0.8,0-1.7,0.1-2.5,0.1C233.1,124.7,233.1,126.3,233.1,128.2z"/>
	</g>
</g>
<path class="st4" d="M361,125.1c-0.5-6.5-0.6-13.1-0.6-19.6s0.1-13-0.3-19.4c-0.1-2.9-0.4-5.7,0.3-8.6c0.3-1.3,0.7-2.6,1.2-3.8
	h-72.9l1.2,32.2l5.8,3.9l-1.2,42.1l5,4.2h57.1l3.1-4.6l1.9-22.3C361.3,127.9,361.1,126.6,361,125.1z"/>
<g id="_x30_zEMZk.tif_2_">
	<g>
		<path class="st3" d="M293.1,109.6c-4.6-1.3-5.8-4.5-5.8-9c0.2-12.9,0.1-25.8,0.1-38.7c0-11.2,8.3-20,19.6-20.7
			c0.8-0.1,2-0.6,2.4-1.3c7.4-11.7,23.2-11.3,29.8,0.8c0.1,0.3,0.3,0.5,0.6,0.9c5.2-1.9,10.3-1.8,15.2,0.6
			c9.7,4.8,13.2,16.8,7.6,26.1c-0.7,1.2-1,2.6-1.7,4.4c5.7,0,10.7,0,15.7,0c8,0,12.6,4.6,12.6,12.6c0,11.1,0,22.3,0,33.4
			c0,7.5-4.5,12.1-11.9,12.2c-5.2,0.1-10.3,0-15.8,0c0,2.2,0,4.1,0,6.1c0,4.4,0,8.8,0,13.1c0,4.2-2.5,6.9-6.7,7.2
			c-0.8,0.1-1.6,0-2.4,0c-16.6,0-33.3,0-49.9,0c-7.2,0-9.3-2.2-9.3-9.5c0-11.9,0-23.9,0-35.8C293.1,111.4,293.1,110.6,293.1,109.6z
			 M301.2,90.3c0,3.9,0,8,0,12.1c0,2.8-1.1,5-3.7,6.2c-1.4,0.6-1.5,1.5-1.5,2.8c0,12.6,0,25.2,0,37.7c0,4.3,1.3,5.7,5.7,5.7
			c17,0,34.1,0,51.1,0c4.5,0,5.8-1.3,5.8-5.8c0-24.4,0-48.9,0-73.3c0-0.7-0.1-1.5-0.1-2c-3.2,1.4-6.2,2.6-9.4,4c0,0.6,0,1.4,0,2.2
			c0,2,0.1,4,0,6c-0.1,3.7-2.7,6.4-6.2,6.6c-3.7,0.3-6.7-2-7.3-5.7c-0.3-2.1-0.3-4.2-0.4-6.4c-5.1,0.9-9.5-0.3-12.9-3.4
			c-2.7,1.4-5,3-7.6,4c-1.7,0.7-2.5,1.3-2.5,3.3c0,3.5-2.4,6.4-5.6,6.7C304.9,91,303.1,90.5,301.2,90.3z M290.2,81.3
			c0,6.8,0,13.7,0,20.5c0,3.3,1.5,5,4.2,4.9c2.5-0.1,4-1.8,4-4.9c0-5.4,0-10.8,0.1-16.2c0-0.9,0.5-2.5,1.1-2.7
			c1.5-0.5,1.5,1,1.8,2.1c0.5,2.1,2.4,3.3,4.5,3c2.2-0.3,3.4-1.7,3.5-3.9c0.1-0.9,0.1-1.8,0-2.6c-0.1-1.5,0.5-2.3,2.1-2.6
			c3.4-0.7,6.4-2.3,8.9-4.8c1.2-1.3,2.2-1.1,3.4,0.1c3.2,3.3,7.1,4.3,11.6,3c2.5-0.7,2.9-0.4,2.9,2.3c0,1.8,0,3.7,0,5.5
			c0.1,2.8,1.6,4.6,4.1,4.6c2.4,0,4.1-1.7,4.2-4.5c0.1-2.5,0.1-5.1,0-7.6c-0.1-2.1,0.6-2.9,2.7-3.3c6.5-1,10.9-4.8,12.7-11.1
			c1.8-6.2,0.2-11.7-4.7-16c-4.8-4.3-10.5-5.2-16.5-2.7c-1.9,0.8-2.8,0.4-3.6-1.5c-2.3-5.5-6.6-8.5-12.6-8.7s-10.4,2.6-13.1,7.9
			c-0.7,1.3-1.4,1.9-2.9,1.9c-10.8,0-18.3,7.5-18.4,18.3C290.2,68.7,290.2,75,290.2,81.3z M361.7,84.2c0,12,0,23.8,0,35.6
			c4.5,0,8.8,0,13.1,0c2,0,3.1-1.1,3.1-3.1c0-9.8,0-19.6,0-29.4c0-2-1-3-2.9-3.1C370.5,84.1,366.2,84.2,361.7,84.2z M361.5,128.2
			c6.1,0,11.9,0.2,17.8-0.1c3.8-0.2,6.9-3.8,7-7.9c0.1-12.2,0.1-24.3,0-36.5c0-4.1-3.2-7.6-7.3-7.9c-5.8-0.3-11.6-0.1-17.4-0.1
			c0,1.9,0,3.7,0,5.6c4.4,0,8.7,0,13,0c3.5,0,5.9,2.1,6,5.5c0.1,10.1,0.1,20.2,0,30.3c0,3-2,5.1-5.1,5.3c-3.8,0.2-7.6,0.1-11.4,0.2
			c-0.8,0-1.7,0.1-2.5,0.1C361.5,124.7,361.5,126.3,361.5,128.2z"/>
	</g>
</g>
<path class="st5" d="M488.5,125.2c-0.3-7.9,0.5-15.8,0.9-23.6c0.2-5.3,0.1-10.5,0.1-15.7c0-2.7,0-5.6,0.3-8.3h-72.6l1,28.6l5.8,3.8
	l-1.2,41.8l5,4.2H485l3.1-4.6l1.7-19.7C489,129.8,488.6,127.6,488.5,125.2z"/>
<g id="_x30_zEMZk.tif_3_">
	<g>
		<path class="st3" d="M421.6,109.6c-4.6-1.3-5.8-4.5-5.8-9c0.2-12.9,0.1-25.8,0.1-38.7c0-11.2,8.3-20,19.6-20.7
			c0.8-0.1,2-0.6,2.4-1.3c7.4-11.7,23.2-11.3,29.8,0.8c0.1,0.3,0.3,0.5,0.6,0.9c5.2-1.9,10.3-1.8,15.2,0.6
			c9.7,4.8,13.2,16.8,7.6,26.1c-0.7,1.2-1,2.6-1.7,4.4c5.7,0,10.7,0,15.7,0c8,0,12.6,4.6,12.6,12.6c0,11.1,0,22.3,0,33.4
			c0,7.5-4.5,12.1-11.9,12.2c-5.2,0.1-10.3,0-15.8,0c0,2.2,0,4.1,0,6.1c0,4.4,0,8.8,0,13.1c0,4.2-2.5,6.9-6.7,7.2
			c-0.8,0.1-1.6,0-2.4,0c-16.6,0-33.3,0-49.9,0c-7.2,0-9.3-2.2-9.3-9.5c0-11.9,0-23.9,0-35.8C421.6,111.4,421.6,110.6,421.6,109.6z
			 M429.7,90.3c0,3.9,0,8,0,12.1c0,2.8-1.1,5-3.7,6.2c-1.4,0.6-1.5,1.5-1.5,2.8c0,12.6,0,25.2,0,37.7c0,4.3,1.3,5.7,5.7,5.7
			c17,0,34.1,0,51.1,0c4.5,0,5.8-1.3,5.8-5.8c0-24.4,0-48.9,0-73.3c0-0.7-0.1-1.5-0.1-2c-3.2,1.4-6.2,2.6-9.4,4c0,0.6,0,1.4,0,2.2
			c0,2,0.1,4,0,6c-0.1,3.7-2.7,6.4-6.2,6.6c-3.7,0.3-6.7-2-7.3-5.7c-0.3-2.1-0.3-4.2-0.4-6.4c-5.1,0.9-9.5-0.3-12.9-3.4
			c-2.7,1.4-5,3-7.6,4c-1.7,0.7-2.5,1.3-2.5,3.3c0,3.5-2.4,6.4-5.6,6.7C433.3,91,431.6,90.5,429.7,90.3z M418.7,81.3
			c0,6.8,0,13.7,0,20.5c0,3.3,1.5,5,4.2,4.9c2.5-0.1,4-1.8,4-4.9c0-5.4,0-10.8,0.1-16.2c0-0.9,0.5-2.5,1.1-2.7
			c1.5-0.5,1.5,1,1.8,2.1c0.5,2.1,2.4,3.3,4.5,3c2.2-0.3,3.4-1.7,3.5-3.9c0.1-0.9,0.1-1.8,0-2.6c-0.1-1.5,0.5-2.3,2.1-2.6
			c3.4-0.7,6.4-2.3,8.9-4.8c1.2-1.3,2.2-1.1,3.4,0.1c3.2,3.3,7.1,4.3,11.6,3c2.5-0.7,2.9-0.4,2.9,2.3c0,1.8,0,3.7,0,5.5
			c0.1,2.8,1.6,4.6,4.1,4.6c2.4,0,4.1-1.7,4.2-4.5c0.1-2.5,0.1-5.1,0-7.6c-0.1-2.1,0.6-2.9,2.7-3.3c6.5-1,10.9-4.8,12.7-11.1
			c1.8-6.2,0.2-11.7-4.7-16c-4.8-4.3-10.5-5.2-16.5-2.7c-1.9,0.8-2.8,0.4-3.6-1.5c-2.3-5.5-6.6-8.5-12.6-8.7s-10.4,2.6-13.1,7.9
			c-0.7,1.3-1.4,1.9-2.9,1.9c-10.8,0-18.3,7.5-18.4,18.3C418.6,68.7,418.7,75,418.7,81.3z M490.1,84.2c0,12,0,23.8,0,35.6
			c4.5,0,8.8,0,13.1,0c2,0,3.1-1.1,3.1-3.1c0-9.8,0-19.6,0-29.4c0-2-1-3-2.9-3.1C499,84.1,494.6,84.2,490.1,84.2z M490,128.2
			c6.1,0,11.9,0.2,17.8-0.1c3.8-0.2,6.9-3.8,7-7.9c0.1-12.2,0.1-24.3,0-36.5c0-4.1-3.2-7.6-7.3-7.9c-5.8-0.3-11.6-0.1-17.4-0.1
			c0,1.9,0,3.7,0,5.6c4.4,0,8.7,0,13,0c3.5,0,5.9,2.1,6,5.5c0.1,10.1,0.1,20.2,0,30.3c0,3-2,5.1-5.1,5.3c-3.8,0.2-7.6,0.1-11.4,0.2
			c-0.8,0-1.7,0.1-2.5,0.1C490,124.7,490,126.3,490,128.2z"/>
	</g>
</g>
<path class="st4" d="M616.8,112.8c-0.2-7.8-0.1-15.7-0.1-23.5h-70.5l0.6,16.9l5.8,3.8l-1.2,41.8l5,4.2h57.1l3.1-4.6l1.9-22.2l0,0
	C616.9,124,616.9,118.3,616.8,112.8z"/>
<g id="_x30_zEMZk.tif_4_">
	<g>
		<path class="st3" d="M550.1,109.6c-4.6-1.3-5.8-4.5-5.8-9c0.2-12.9,0.1-25.8,0.1-38.7c0-11.2,8.3-20,19.6-20.7
			c0.8-0.1,2-0.6,2.4-1.3c7.4-11.7,23.2-11.3,29.8,0.8c0.1,0.3,0.3,0.5,0.6,0.9c5.2-1.9,10.3-1.8,15.2,0.6
			c9.7,4.8,13.2,16.8,7.6,26.1c-0.7,1.2-1,2.6-1.7,4.4c5.7,0,10.7,0,15.7,0c8,0,12.6,4.6,12.6,12.6c0,11.1,0,22.3,0,33.4
			c0,7.5-4.5,12.1-11.9,12.2c-5.2,0.1-10.3,0-15.8,0c0,2.2,0,4.1,0,6.1c0,4.4,0,8.8,0,13.1c0,4.2-2.5,6.9-6.7,7.2
			c-0.8,0.1-1.6,0-2.4,0c-16.6,0-33.3,0-49.9,0c-7.2,0-9.3-2.2-9.3-9.5c0-11.9,0-23.9,0-35.8C550.1,111.4,550.1,110.6,550.1,109.6z
			 M558.1,90.3c0,3.9,0,8,0,12.1c0,2.8-1.1,5-3.7,6.2c-1.4,0.6-1.5,1.5-1.5,2.8c0,12.6,0,25.2,0,37.7c0,4.3,1.3,5.7,5.7,5.7
			c17,0,34.1,0,51.1,0c4.5,0,5.8-1.3,5.8-5.8c0-24.4,0-48.9,0-73.3c0-0.7-0.1-1.5-0.1-2c-3.2,1.4-6.2,2.6-9.4,4c0,0.6,0,1.4,0,2.2
			c0,2,0.1,4,0,6c-0.1,3.7-2.7,6.4-6.2,6.6c-3.7,0.3-6.7-2-7.3-5.7c-0.3-2.1-0.3-4.2-0.4-6.4c-5.1,0.9-9.5-0.3-12.9-3.4
			c-2.7,1.4-5,3-7.6,4c-1.7,0.7-2.5,1.3-2.5,3.3c0,3.5-2.4,6.4-5.6,6.7C561.8,91,560.1,90.5,558.1,90.3z M547.2,81.3
			c0,6.8,0,13.7,0,20.5c0,3.3,1.5,5,4.2,4.9c2.5-0.1,4-1.8,4-4.9c0-5.4,0-10.8,0.1-16.2c0-0.9,0.5-2.5,1.1-2.7
			c1.5-0.5,1.5,1,1.8,2.1c0.5,2.1,2.4,3.3,4.5,3c2.2-0.3,3.4-1.7,3.5-3.9c0.1-0.9,0.1-1.8,0-2.6c-0.1-1.5,0.5-2.3,2.1-2.6
			c3.4-0.7,6.4-2.3,8.9-4.8c1.2-1.3,2.2-1.1,3.4,0.1c3.2,3.3,7.1,4.3,11.6,3c2.5-0.7,2.9-0.4,2.9,2.3c0,1.8,0,3.7,0,5.5
			c0.1,2.8,1.6,4.6,4.1,4.6c2.4,0,4.1-1.7,4.2-4.5c0.1-2.5,0.1-5.1,0-7.6c-0.1-2.1,0.6-2.9,2.7-3.3c6.5-1,10.9-4.8,12.7-11.1
			c1.8-6.2,0.2-11.7-4.7-16c-4.8-4.3-10.5-5.2-16.5-2.7c-1.9,0.8-2.8,0.4-3.6-1.5c-2.3-5.5-6.6-8.5-12.6-8.7s-10.4,2.6-13.1,7.9
			c-0.7,1.3-1.4,1.9-2.9,1.9c-10.8,0-18.3,7.5-18.4,18.3C547.1,68.7,547.2,75,547.2,81.3z M618.6,84.2c0,12,0,23.8,0,35.6
			c4.5,0,8.8,0,13.1,0c2,0,3.1-1.1,3.1-3.1c0-9.8,0-19.6,0-29.4c0-2-1-3-2.9-3.1C627.5,84.1,623.1,84.2,618.6,84.2z M618.5,128.2
			c6.1,0,11.9,0.2,17.8-0.1c3.8-0.2,6.9-3.8,7-7.9c0.1-12.2,0.1-24.3,0-36.5c0-4.1-3.2-7.6-7.3-7.9c-5.8-0.3-11.6-0.1-17.4-0.1
			c0,1.9,0,3.7,0,5.6c4.4,0,8.7,0,13,0c3.5,0,5.9,2.1,6,5.5c0.1,10.1,0.1,20.2,0,30.3c0,3-2,5.1-5.1,5.3c-3.8,0.2-7.6,0.1-11.4,0.2
			c-0.8,0-1.7,0.1-2.5,0.1C618.5,124.7,618.5,126.3,618.5,128.2z"/>
	</g>
</g>
<path class="st4" d="M746,130.5c-0.9-1.7-0.8-3.9-0.9-5.7c-0.2-3.6-0.3-7.3-0.4-10.9c-0.1-6.5-0.1-12.9-0.1-19.4h-69.7l0.4,11.7
	l5.8,3.8l-1.2,41.8l5,4.2H742l3.1-4.6l1.7-19.8C746.5,131.3,746.2,130.9,746,130.5z"/>
<g id="_x30_zEMZk.tif_5_">
	<g>
		<path class="st3" d="M678.6,109.6c-4.6-1.3-5.8-4.5-5.8-9c0.2-12.9,0.1-25.8,0.1-38.7c0-11.2,8.3-20,19.6-20.7
			c0.8-0.1,2-0.6,2.4-1.3c7.4-11.7,23.2-11.3,29.8,0.8c0.1,0.3,0.3,0.5,0.6,0.9c5.2-1.9,10.3-1.8,15.2,0.6
			c9.7,4.8,13.2,16.8,7.6,26.1c-0.7,1.2-1,2.6-1.7,4.4c5.7,0,10.7,0,15.7,0c8,0,12.6,4.6,12.6,12.6c0,11.1,0,22.3,0,33.4
			c0,7.5-4.5,12.1-11.9,12.2c-5.2,0.1-10.3,0-15.8,0c0,2.2,0,4.1,0,6.1c0,4.4,0,8.8,0,13.1c0,4.2-2.5,6.9-6.7,7.2
			c-0.8,0.1-1.6,0-2.4,0c-16.6,0-33.3,0-49.9,0c-7.2,0-9.3-2.2-9.3-9.5c0-11.9,0-23.9,0-35.8C678.6,111.4,678.6,110.6,678.6,109.6z
			 M686.6,90.3c0,3.9,0,8,0,12.1c0,2.8-1.1,5-3.7,6.2c-1.4,0.6-1.5,1.5-1.5,2.8c0,12.6,0,25.2,0,37.7c0,4.3,1.3,5.7,5.7,5.7
			c17,0,34.1,0,51.1,0c4.5,0,5.8-1.3,5.8-5.8c0-24.4,0-48.9,0-73.3c0-0.7-0.1-1.5-0.1-2c-3.2,1.4-6.2,2.6-9.4,4c0,0.6,0,1.4,0,2.2
			c0,2,0.1,4,0,6c-0.1,3.7-2.7,6.4-6.2,6.6c-3.7,0.3-6.7-2-7.3-5.7c-0.3-2.1-0.3-4.2-0.4-6.4c-5.1,0.9-9.5-0.3-12.9-3.4
			c-2.7,1.4-5,3-7.6,4c-1.7,0.7-2.5,1.3-2.5,3.3c0,3.5-2.4,6.4-5.6,6.7C690.3,91,688.6,90.5,686.6,90.3z M675.6,81.3
			c0,6.8,0,13.7,0,20.5c0,3.3,1.5,5,4.2,4.9c2.5-0.1,4-1.8,4-4.9c0-5.4,0-10.8,0.1-16.2c0-0.9,0.5-2.5,1.1-2.7
			c1.5-0.5,1.5,1,1.8,2.1c0.5,2.1,2.4,3.3,4.5,3c2.2-0.3,3.4-1.7,3.5-3.9c0.1-0.9,0.1-1.8,0-2.6c-0.1-1.5,0.5-2.3,2.1-2.6
			c3.4-0.7,6.4-2.3,8.9-4.8c1.2-1.3,2.2-1.1,3.4,0.1c3.2,3.3,7.1,4.3,11.6,3c2.5-0.7,2.9-0.4,2.9,2.3c0,1.8,0,3.7,0,5.5
			c0.1,2.8,1.6,4.6,4.1,4.6c2.4,0,4.1-1.7,4.2-4.5c0.1-2.5,0.1-5.1,0-7.6c-0.1-2.1,0.6-2.9,2.7-3.3c6.5-1,10.9-4.8,12.7-11.1
			c1.8-6.2,0.2-11.7-4.7-16c-4.8-4.3-10.5-5.2-16.5-2.7c-1.9,0.8-2.8,0.4-3.6-1.5c-2.3-5.5-6.6-8.5-12.6-8.7s-10.4,2.6-13.1,7.9
			c-0.7,1.3-1.4,1.9-2.9,1.9c-10.8,0-18.3,7.5-18.4,18.3C675.6,68.7,675.6,75,675.6,81.3z M747.1,84.2c0,12,0,23.8,0,35.6
			c4.5,0,8.8,0,13.1,0c2,0,3.1-1.1,3.1-3.1c0-9.8,0-19.6,0-29.4c0-2-1-3-2.9-3.1C756,84.1,751.6,84.2,747.1,84.2z M747,128.2
			c6.1,0,11.9,0.2,17.8-0.1c3.8-0.2,6.9-3.8,7-7.9c0.1-12.2,0.1-24.3,0-36.5c0-4.1-3.2-7.6-7.3-7.9c-5.8-0.3-11.6-0.1-17.4-0.1
			c0,1.9,0,3.7,0,5.6c4.4,0,8.7,0,13,0c3.5,0,5.9,2.1,6,5.5c0.1,10.1,0.1,20.2,0,30.3c0,3-2,5.1-5.1,5.3c-3.8,0.2-7.6,0.1-11.4,0.2
			c-0.8,0-1.7,0.1-2.5,0.1C747,124.7,747,126.3,747,128.2z"/>
	</g>
</g>
<text transform="matrix(1 0 0 1 52.416 185.532)" class="st3 st6 st7">México</text>
<text transform="matrix(1 0 0 1 185.742 185.7306)" class="st3 st6 st7">Brasil</text>
<rect x="38" y="110.4" class="st8" width="64.8" height="44.1"/>
<text transform="matrix(1 0 0 1 47.2027 122.4632)" class="st9 st6 st10">68,9 lt.</text>
<rect x="166.9" y="110.4" class="st8" width="64.8" height="44.1"/>
<text transform="matrix(1 0 0 1 176.0947 122.4632)" class="st9 st6 st10">59,9 lt.</text>
<rect x="295" y="110.4" class="st8" width="64.8" height="44.1"/>
<text transform="matrix(1 0 0 1 304.181 122.4632)" class="st9 st6 st10">54,8 lt.</text>
<rect x="423.1" y="110.4" class="st8" width="64.8" height="44.1"/>
<text transform="matrix(1 0 0 1 432.2674 122.4632)" class="st3 st6 st10">52,6 lt.</text>
<rect x="552.4" y="110.4" class="st8" width="64.8" height="44.1"/>
<text transform="matrix(1 0 0 1 561.5621 122.4632)" class="st9 st6 st10">44,9 lt.</text>
<rect x="680.5" y="110.4" class="st8" width="64.8" height="44.1"/>
<text transform="matrix(1 0 0 1 689.6479 122.4632)" class="st9 st6 st10">41,3 lt.</text>
<text transform="matrix(1 0 0 1 303.0653 185.7879)" class="st3 st6 st7">Colombia</text>
<text transform="matrix(1 0 0 1 443.1956 185.7911)" class="st3 st6 st7">Chile</text>
<text transform="matrix(1 0 0 1 572.8965 185.6358)" class="st3 st6 st7">Perú</text>
<text transform="matrix(1 0 0 1 687.8489 185.7173)" class="st3 st6 st7">Argentina</text>
</svg>
